<?xml version="1.0" encoding="UTF-8" standalone="no"?>
<!-- Created with Inkscape (http://www.inkscape.org/) -->

<svg
   xmlns:dc="http://purl.org/dc/elements/1.1/"
   xmlns:cc="http://creativecommons.org/ns#"
   xmlns:rdf="http://www.w3.org/1999/02/22-rdf-syntax-ns#"
   xmlns:svg="http://www.w3.org/2000/svg"
   xmlns="http://www.w3.org/2000/svg"
   xmlns:sodipodi="http://sodipodi.sourceforge.net/DTD/sodipodi-0.dtd"
   xmlns:inkscape="http://www.inkscape.org/namespaces/inkscape"
   width="135.34375"
   height="135.375"
   id="svg2"
   version="1.1"
   inkscape:version="0.48.2 r9819"
   sodipodi:docname="song.svg">
  <defs
     id="defs4" />
  <sodipodi:namedview
     id="base"
     pagecolor="#ffffff"
     bordercolor="#666666"
     borderopacity="1.0"
     inkscape:pageopacity="0.0"
     inkscape:pageshadow="2"
     inkscape:zoom="5.6"
     inkscape:cx="46.020067"
     inkscape:cy="57.853643"
     inkscape:document-units="px"
     inkscape:current-layer="layer1"
     showgrid="false"
     inkscape:snap-object-midpoints="true"
     inkscape:window-width="1916"
     inkscape:window-height="1058"
     inkscape:window-x="4"
     inkscape:window-y="0"
     inkscape:window-maximized="1"
     fit-margin-top="0"
     fit-margin-left="0"
     fit-margin-right="0"
     fit-margin-bottom="0" />
  <metadata
     id="metadata7">
    <rdf:RDF>
      <cc:Work
         rdf:about="">
        <dc:format>image/svg+xml</dc:format>
        <dc:type
           rdf:resource="http://purl.org/dc/dcmitype/StillImage" />
        <dc:title></dc:title>
      </cc:Work>
    </rdf:RDF>
  </metadata>
  <g
     inkscape:label="Layer 1"
     inkscape:groupmode="layer"
     id="layer1"
     transform="translate(-9.65625,-893.95593)">
    <path
       style="fill:#282828;fill-opacity:1;fill-rule:evenodd;stroke:none"
       d="m 77.3125,1.59375 c -37.377844,0 -67.65625,30.309656 -67.65625,67.6875 0,37.37784 30.278406,67.6875 67.65625,67.6875 37.37784,0 67.6875,-30.30966 67.6875,-67.6875 0,-37.377844 -30.30966,-67.6875 -67.6875,-67.6875 z m 0,15.5625 c 28.7977,0 52.15625,23.327295 52.15625,52.125 0,28.797705 -23.35855,52.15625 -52.15625,52.15625 -28.797705,0 -52.125,-23.358545 -52.125,-52.15625 0,-28.797705 23.327295,-52.125 52.125,-52.125 z"
       transform="translate(0,892.36218)"
       id="path2985"
       inkscape:connector-curvature="0" />
    <path
       style="fill:#282828;fill-opacity:1;stroke:none"
       d="m 90.582589,921.98942 -0.03125,0.0312 -14.53125,0 0,46.0625 c -2.21952,-0.45399 -4.582642,-0.71875 -7.0625,-0.71875 -11.982606,0 -21.6875,5.77419 -21.6875,12.875 0,7.1008 9.704894,12.84375 21.6875,12.84375 11.982606,0 21.6875,-5.74295 21.6875,-12.84375 l 0.1875,0 0,-36.8125 12.000001,12.03125 10.625,-10.625 -22.625001,-22.59375 0,-0.21875 -0.21875,0 -0.03125,-0.0312 z"
       id="path3760"
       inkscape:connector-curvature="0" />
  </g>
</svg>
